# xmcd
#
# Track frame offsets:
#	150
#	16190
#	36117
#	50537
#	77215
#	97572
#	119615
#	137292
#	160597
#	179712
#
# Disc length: 2613 seconds
#
# Revision: 0
# Processed by: cddbd v1.5.1PL0 Copyright (c) Steve Scherf et al.
# Submitted via: dBpowerAMP V4.0
#
DISCID=720a330a
DTITLE=张国荣 - 英雄本色
DYEAR=1987
DGENRE=Blues
TTITLE0=拒绝再玩
TTITLE1=共同渡过
TTITLE2=无心睡眠
TTITLE3=失散的影子
TTITLE4=到未来日子
TTITLE5=为你
TTITLE6=野火
TTITLE7=惊梦
TTITLE8=找一个地方
TTITLE9=倩女幽魂
EXTD=
EXTT0=
EXTT1=
EXTT2=
EXTT3=
EXTT4=
EXTT5=
EXTT6=
EXTT7=
EXTT8=
EXTT9=
PLAYORDER=
